<svg version="1.1" viewBox="-5.0 -10.0 110.0 135.0">
    <g>
        <path d="m75.25 73.859c10.641-6.4844 16.938-16.719 16.938-27.672 0-19.062-18.922-34.562-42.188-34.562-21.344 0-39.344 13.062-41.859 30.375-0.21875 1.375-0.32812 2.7812-0.32812 4.2031 0 15.703 12.906 29.453 31.359 33.406 0.53125 0.125 1.0625 0.23438 1.6094 0.32812l0.70312 0.14062s0.1875 0.03125 0.20312 0.03125h0.03125l40.984 8.2344c0.10938 0.015625 0.20312 0.03125 0.3125 0.03125 0.53125 0 1.0312-0.26562 1.3281-0.73438 0.34375-0.54688 0.3125-1.25-0.078125-1.7656zm-32.984 3.1719-1.25-0.25h-0.0625c-0.35938-0.0625-0.71875-0.14062-1.0938-0.21875-17.031-3.6562-28.922-16.141-28.922-30.359 0-1.25 0.09375-2.5 0.28125-3.7344 2.3125-15.797 18.969-27.703 38.781-27.703 21.547 0 39.062 14.109 39.062 31.438 0 10.328-6.3125 20-16.859 25.859-0.03125 0.015625-0.046875 0.046875-0.078125 0.078125-0.03125 0.015625-0.0625 0.015625-0.09375 0.046875-0.0625 0.046875-0.078125 0.10938-0.14062 0.15625-0.078125 0.078125-0.15625 0.14062-0.20312 0.23438-0.0625 0.078125-0.09375 0.17188-0.14062 0.26562-0.03125 0.09375-0.078125 0.1875-0.09375 0.28125s-0.03125 0.20312-0.03125 0.29688v0.29688c0.015625 0.10938 0.0625 0.20312 0.09375 0.29688 0.03125 0.0625 0.03125 0.125 0.0625 0.1875 0.015625 0.03125 0.046875 0.046875 0.0625 0.078125l0.046875 0.09375 7.5938 10.125-37.031-7.4375z"/>
        <path d="m74.281 57.281v-3h0.71875c2.5781 0 4.6875-2.1094 4.6875-4.6875v-4.5625c0-2.5781-2.1094-4.6875-4.6875-4.6875h-0.71875v-3c0-4.3125-3.5-7.8125-7.8125-7.8125h-9.1406c-0.70312-3.4062-3.7188-5.9844-7.3281-5.9844s-6.625 2.5781-7.3281 5.9844h-9.1406c-4.3125 0-7.8125 3.5-7.8125 7.8125v3h-0.71875c-2.5781 0-4.6875 2.1094-4.6875 4.6875v4.5625c0 2.5781 2.1094 4.6875 4.6875 4.6875h0.71875v3c0 4.3125 3.5 7.8125 7.8125 7.8125h32.938c4.3125 0 7.8125-3.5 7.8125-7.8125zm0.71875-13.828c0.85938 0 1.5625 0.70312 1.5625 1.5625v4.5625c0 0.85938-0.70312 1.5625-1.5625 1.5625h-0.71875v-7.6875zm-25-16.797c1.875 0 3.4531 1.1875 4.0781 2.8594h-8.1406c0.60938-1.6562 2.2031-2.8594 4.0781-2.8594zm-25 24.484c-0.85938 0-1.5625-0.70312-1.5625-1.5625v-4.5625c0-0.85938 0.70312-1.5625 1.5625-1.5625h0.71875v7.6875zm46.156 6.1406c0 2.5781-2.1094 4.6875-4.6875 4.6875h-32.938c-2.5781 0-4.6875-2.1094-4.6875-4.6875v-19.953c0-2.5781 2.1094-4.6875 4.6875-4.6875h32.938c2.5781 0 4.6875 2.1094 4.6875 4.6875z"/>
        <path d="m45.078 42.969c0-3.25-2.6406-5.8906-5.8906-5.8906s-5.8906 2.6406-5.8906 5.8906 2.6406 5.8906 5.8906 5.8906 5.8906-2.6406 5.8906-5.8906zm-5.8906 2.7656c-1.5312 0-2.7656-1.2344-2.7656-2.7656s1.2344-2.7656 2.7656-2.7656 2.7656 1.2344 2.7656 2.7656-1.2344 2.7656-2.7656 2.7656z"/>
        <path d="m60.812 37.078c-3.25 0-5.8906 2.6406-5.8906 5.8906s2.6406 5.8906 5.8906 5.8906 5.8906-2.6406 5.8906-5.8906-2.6406-5.8906-5.8906-5.8906zm0 8.6562c-1.5312 0-2.7656-1.2344-2.7656-2.7656s1.2344-2.7656 2.7656-2.7656 2.7656 1.2344 2.7656 2.7656-1.2344 2.7656-2.7656 2.7656z"/>
        <path d="m54.328 50.5c-1.6875 1.6094-3.75 1.7344-4.3281 1.7344-2.3281 0-3.9062-1.3281-4.3281-1.7344-0.625-0.59375-1.6094-0.57812-2.2031 0.046875s-0.57812 1.6094 0.046875 2.2031c0.8125 0.78125 3.0938 2.5938 6.4844 2.5938 1.125 0 4.0312-0.25 6.4844-2.5938 0.625-0.59375 0.65625-1.5781 0.0625-2.2031s-1.5938-0.65625-2.2031-0.046875z"/>
    </g>
</svg>
