<svg viewBox="0 0 48 48"><g><path d="M16.8,6.3C16.6,6.1,16.3,6,16,6c0,0,0,0,0,0c-0.3,0-0.5,0.1-0.7,0.3l-5,5.4c-0.2,0.2-0.3,0.4-0.3,0.7V41c0,0.6,0.4,1,1,1   h10c0.6,0,1-0.4,1-1V12.4c0-0.3-0.1-0.5-0.3-0.7L16.8,6.3z M20,40h-8V12.8l4-4.3l4,4.3V40z"/><path d="M37,7.1H27c-0.6,0-1,0.4-1,1V41c0,0.6,0.4,1,1,1h10c0.6,0,1-0.4,1-1V8.1C38,7.5,37.5,7.1,37,7.1z M36,40h-8V29h3.6   c0.6,0,1-0.4,1-1s-0.4-1-1-1H28V23h3.6c0.6,0,1-0.4,1-1s-0.4-1-1-1H28v-4.1h3.6c0.6,0,1-0.4,1-1c0-0.6-0.4-1-1-1H28V9.1h8V40z"/></g></svg>
