<svg enable-background="new 0 0 48 48" height="48px" id="Layer_3" version="1.1" viewBox="0 0 48 48" width="48px" xml:space="preserve" xmlns="http://www.w3.org/2000/svg" xmlns:xlink="http://www.w3.org/1999/xlink"><g><rect height="4.709" width="4.708" x="16.218" y="28.708"/><rect height="4.709" width="4.708" x="23.412" y="28.708"/><rect height="4.709" width="4.708" x="30.409" y="28.708"/><rect height="4.709" width="4.708" x="37.406" y="28.708"/><rect height="4.709" width="4.708" x="16.218" y="35.771"/><rect height="4.709" width="4.708" x="23.412" y="35.771"/><rect height="4.709" width="4.708" x="30.409" y="35.771"/><rect height="4.709" width="4.708" x="37.406" y="35.771"/><path d="M47.302,13.014h-4.533V9.875v-3.14H39.63h-1.962V3.597V0.458h-3.271H29.82h-3.139H10.986H7.847h-4.12H0v9.338v3.139v22.052   h5.101v6.277h5.232v6.278H48V25.49v-3.139v-9.338H47.302z M3.139,3.597h2.092h2.616h3.139h15.695h3.139h3.27h1.308v3.139h-2.615   H16.087h-3.139h-4.12H5.101v3.061H3.139V3.597z M3.139,31.847V12.935h1.961v3.14v3.139v12.634H3.139z M10.333,22.352v3.139v12.635   H8.24V19.213h2.093V22.352z M10.333,16.074H8.24V9.875h2.093h2.616h3.139h15.695h3.139h3.27h1.439v3.139h-2.616H21.319H18.18   h-2.703h-5.144V16.074z M44.861,44.403h-31.39V25.49h31.39V44.403z M44.861,22.352h-31.39v-6.199h3.139h1.569h3.139h15.695h3.139   h3.14h1.569V22.352z"/></g></svg>
