<svg xmlns="http://www.w3.org/2000/svg" version="1.1" xmlns:xlink="http://www.w3.org/1999/xlink" xmlns:svgjs="http://svgjs.dev/svgjs" width="1500" height="1500" viewBox="0 0 1500 1500"><rect width="1500" height="1500" fill="#ffffff"></rect><g transform="matrix(0.6666666666666666,0,0,0.6666666666666666,250.00000642511293,187.66666666666674)"><svg viewBox="0 0 320 360" data-background-color="#052560" preserveAspectRatio="xMidYMid meet" height="1687" width="1500" xmlns="http://www.w3.org/2000/svg" xmlns:xlink="http://www.w3.org/1999/xlink"><g id="tight-bounds" transform="matrix(1,0,0,1,0.0000020560361235766322,0)"><svg viewBox="0 0 320 360" height="360" width="320"><g><svg></svg></g><g><svg viewBox="0 0 320 360" height="360" width="320"><g><path transform="translate(-15.58119,4.24857) scale(3.51065,3.51065)" d="M51.5 85.2c-0.4-0.5-0.8-0.2-0.8-0.5-2.4 0.6-6.9-1-8.8-0.8 0.4-0.6-0.6-0.5-0.6-0.9-0.4 0.6-0.8 0-1.4 0.2-0.6-1.5-3-0.4-3.3-2.3-1.4 0-1.9-0.8-3.3-1.6 0.1-0.1 0.2-0.1 0.3-0.2-0.7-0.1-0.7-0.5-1.3-0.5l0.2-0.4c-1.1-0.2-1.5-1.9-3.1-2.5-0.5-0.1-1.6-1.8-2.2-2.2-0.3-0.2-0.8-0.2-0.1-0.3-0.1-0.1-0.1-0.3 0-0.4-0.7-0.2-0.8-0.8-1.7-1.1-0.1-0.3 0.2-0.5 0-0.7-0.2-0.1-0.5 0.1-0.7 0-0.1 1.8 1.9 2 2.5 3.5-0.2-0.2-0.5-0.8-0.7-0.4-0.1 0.3 0.8 1.4 0.8 0.8-0.3 0.2-0.4-0.3-0.2-0.4 0.3 0.5 0.9 0.4 0.9 0.8-0.3 0.3-0.7-0.3-0.6 0.2 0.9 0.5 0.8 1 1.3 1.7-0.4-0.5-0.5 0.4-0.9 0-0.1-1.5-1.8-1.2-1.8-2.7-0.2-0.5-0.4-0.1-0.7-0.3 0.4-0.4-1.2-1.8-1.2-1.3-0.5-0.6-0.2-0.8-0.3-1.2-0.4-0.1-0.1 0.4-0.4 0.1 0.4-0.7-0.5-1.6-1.1-2.3l0.4-0.2c-0.7-0.4-0.8-1.2-1.3-2.1-0.6 0.9 1.2 2.9 0.9 3.3 0 0.1 0.7 0.9 0.9 1.3 0.8 1.4 1.4 3.1 2.5 3.9-0.2-0.1-0.1-0.7 0.2-0.4 0 0.3-0.2 0.6-0.2 0.9 0.6 0.6 1.1 1.1 1.7 1.7-1.3-0.8-2.6-1.6-3.5-2.8 0.5-0.1 1 0.8 1.4 0.7-1-0.8-0.7-1.1-1.1-2.1-0.4-0.3 0.1 0.4-0.3 0.5-1.3-1.2-2.3-1.9-2.9-3 0.1-0.1 0.2-0.2 0.2-0.4-0.1-0.1-0.1-0.1-0.2-0.2 0.6 0.6 0.8 1.1 1.5 1.2-0.3-0.3 0-0.4-0.4-0.7-0.2-0.4-0.5 0.2-0.7-0.1 0.2-0.3 0-0.7 0-1-0.2 0-0.4 0-0.5-0.3-0.2-0.1-0.3 0-0.4 0.2-0.1-0.1-0.1-0.3-0.2-0.4v-0.1c-0.1-0.1-0.2-0.3-0.3-0.4-0.8-2.1-1.3-4.9-2.4-6.7 0.3-1.2-0.2-3.6-0.5-4.2 0.3-0.5 0.1-2.8-0.1-3.2-0.5 0.2 0.1 1.3-0.4 1.6-0.5-2.2 0.3-4.7 0.1-6.7 0.2 0 0.4 0 0.4-0.1-0.3-0.3 0.2-0.9 0.1-1.6 0.4-0.9-0.9 1.3-0.9 2.2-0.1 0.2-0.5 0-0.4 0.5 0 0.7 0.2 2.1-0.2 3.1-0.2 0-0.2-0.2-0.4-0.1-0.1 0.5-0.2 1.1-0.3 1.6-0.1-0.2-0.2-0.5-0.2-0.6-0.5-2.5 0-5.4-0.2-7.5 0.4 0 0.4-0.6 0.7-0.8-0.1 0.8-0.3 1.8 0.2 2 0.4-3.9 1.2-8.2 3-12.4 1.3-3.1 3.2-6.2 5.5-8.7 0.2 0.3-0.1 1 0 1.3 2-2.1 3.3-4.6 5.5-6 0.1 0.5-0.9 0.9-0.9 1.3 0.9-0.9 1.2-0.6 2.2-0.9 0.3-0.4-0.4 0-0.5-0.4 0.6-0.4 1-0.9 1.4-1.2 0 0.1-0.1 0.1-0.1 0.2 1.1-0.3 1.2-0.9 2-1.1-0.1-0.1-0.3-0.2-0.6-0.1 0.2-0.1 0.5-0.3 0.8-0.4-0.1 0-0.1 0.1-0.2 0.1 0.6-0.3 0.1 0.1 0.1 0.3 0.1 0 0.2-0.1 0.2-0.1-0.6 0.4-1 0.6-1.2 1.3 0.3-0.2 0.4 0 0.8-0.3 0.4-0.2-0.1-0.5 0.2-0.7 0.3 0.2 0.7 0.1 1 0.1 0-0.2 0.1-0.4 0.3-0.5 0.1-0.2 0-0.3-0.1-0.3 0.1-0.1 0.2-0.1 0.4-0.2 0 0 0.1 0 0.1 0.1 1.7-0.8 3.6-1.5 5.4-2.1 1.1-0.1 2.5-0.1 3.1-0.8-0.2 0-0.4 0.1-0.5 0 0.1 0 0.3-0.1 0.4-0.1 0.2 0.2 0.5 0 0.2 0.4 0.1 0 0.1 0 0.2-0.1 0 0.1 0 0.1 0.1 0.2 0.1 0 0.2-0.1 0.3-0.3 0.1 0 0.2 0 0.3-0.1l-0.1 0.1c0.8-0.2 1.5-0.1 2.6-0.3 0-0.1 0-0.2 0-0.3 0.2 0 0.3-0.1 0.5-0.1v0.1c0.4-0.2 0.8 0.2 0.8 0 0.1 0 0.1 0 0.2 0 0 0.2-0.1 0.3-0.1 0.4 0.5 0 0.8 0 1-0.3-0.1-0.1-0.2-0.1-0.3-0.1 0.2 0 0.4-0.1 0.6-0.2 0.3 0.1 0.4 0.2 0.4 0.6 0.5-0.9 2.1 0.2 2.8 0 0.3 0 0.2-0.4 0.4-0.6 0.1 0 0.2 0 0.3 0 0.5 0.4 1.2 0.8 2.1 0.9-0.8-0.2 0.1-0.3 0.2-0.4-0.2 0-0.2-0.1-0.2-0.2 0.3 0 0.6 0.1 0.9 0.1 0 0.2 0.1 0.3 0.3 0.3 0.2 0 0.2-0.1 0.2-0.3 0.3 0 0.5 0 0.8 0.1-0.1 0.4 0.5 0.5 0.7 0.8-0.8-0.2-1.7-0.5-2 0 3.2 0.7 6.7 1.7 10.1 3.4 0 0 0 0 0 0.1h0.1c0.6 0.3 1.2 0.6 1.8 0.9 0.4 0.2 0.7 0.4 1.1 0.7 0 0.1 0 0.2 0.2 0.2h0.1c0.4 0.3 0.8 0.5 1.2 0.8 0.4 0.6 0.8 1.4 1.5 1.2 1.5 2.3 3.1 3.2 4.4 5.6 0.1-0.4 0.4 0.9 0.9 1-0.8-0.1 0.5 0.5-0.3 0.4 0.7 0.7 0.9 1 1 1.8-0.2-0.4-0.3-0.5-0.4-0.1-0.1 0.6 0.7-0.1 1 0.5-0.6 0-0.4 0.4-0.3 0.9 0.3-0.3 0.2-0.6 0.5-0.5 0.4 0.4-0.2 0.5-0.1 0.8 0.3-0.4 0.4-0.2 0.8 0-0.5 0.1 0.3 0.8-0.3 0.5 0.4 0.5 0.5 0.8 0.3 1.3-0.4-0.6-0.1-1-0.7-0.9 1.2 1 0.6 3.3 2 3.5-0.9 0.2 0 0.6-0.5 0.7 0.6 0.2 0.3 1 1 1.2-0.1 0.5-0.3 0.8-0.4 1.3 0.3 0.4 0.4 1.2 0.9 1.3-0.3 0.3-0.1 1.1-0.4 1.4 0.4-0.2 0.6-0.2 0.9 0.2-0.5 0.4-0.1 0.8-0.4 0.9 0.9 2.3-0.2 7 0.3 8.8-0.6-0.3-0.4 0.7-0.8 0.7 0.7 0.3 0.1 0.8 0.4 1.3-1.4 0.8 0 3-1.9 3.5 0.2 1.4-0.6 2-1.2 3.5-0.1-0.1-0.1-0.2-0.2-0.3-0.1 0.7-0.5 0.8-0.3 1.4l-0.4-0.2c0 1.1-1.7 1.7-2.1 3.4-0.1 0.5-1.6 1.8-2 2.5-0.2 0.3-0.1 0.8-0.3 0.1-0.1 0.1-0.3 0.1-0.4 0.1-0.1 0.7-0.7 0.9-0.9 1.8-0.2 0.1-0.5-0.2-0.7 0.1 0 0.2 0.2 0.5 0.1 0.7 1.8-0.1 1.8-2.2 3.2-2.9-0.1 0.3-0.7 0.6-0.3 0.8 0.3 0 1.2-1 0.7-0.9 0.3 0.2-0.3 0.4-0.4 0.3 0.5-0.4 0.3-0.9 0.7-1 0.3 0.2-0.3 0.7 0.3 0.6 0.4-0.9 0.9-1 1.5-1.5-0.4 0.4 0.5 0.5 0.1 0.9-1.5 0.3-1 2-2.5 2.2-0.4 0.3-0.1 0.4-0.2 0.7-0.5-0.3-1.6 1.4-1.2 1.3-0.5 0.5-0.8 0.3-1.2 0.4-0.1 0.4 0.4 0.1 0.2 0.4-0.7-0.3-1.6 0.7-2.2 1.4l-0.3-0.3c-0.3 0.8-1.1 0.9-2 1.5 1 0.5 2.7-1.6 3.2-1.3 0.1 0 0.9-0.8 1.2-1.1 1.3-1 2.9-1.8 3.5-2.9-0.1 0.2-0.7 0.2-0.4-0.1 0.3-0.1 0.6 0.1 0.9 0.1 1.6-2.2 3.6-4 5.1-6.6 0.1-0.1 0.2-0.3 0.3-0.5-0.2 0.6-0.5 1.1-0.7 1.7-1.6 1.1-2.2 4.3-4.1 4.8 0.1 1.1-0.9 1.4-1.4 2.7-0.3 0.4-0.5-0.3-0.8 0.2 0.3 1.4-2.5 1.3-2.4 2.6-0.2 0.1-0.5 0.2-0.7 0.4h-0.1c-0.1 0.1-0.1 0.1-0.2 0.2-0.5 0.3-0.9 0.6-1.3 0.9-1.4 0.8-3.3 1.4-4.8 2.2v-0.1c-0.4 0.2-0.9 0.1-0.8 0.5-0.3 0.2-0.6 0.4-0.9 0.6-0.1 0-0.1 0-0.2 0 0 0-0.1-0.1-0.2-0.1-0.2 0-0.2 0-0.3 0.1-1.3 0.1-3 0.7-3.5 1.1-0.5-0.3-2.8 0.2-3.2 0.4 0.2 0.3 0.8 0 1.3 0-0.3 0.1-0.6 0.2-0.7 0.4-0.1 0-0.1 0-0.2 0-0.1-0.3-0.4 0-0.5-0.1h0.1c-0.1-0.4-0.4-0.6-0.9-0.5 0 0.2 0 0.3-0.1 0.5 0.2 0 0.8-0.3 0.8 0-0.1 0-0.1 0.1 0 0.1-0.2 0.2-0.5 0.2-0.7 0.3-0.4 0-0.9 0-1.3 0-0.1-0.1-0.2-0.1-0.4-0.2-0.1 0.1-0.3 0.1-0.4 0.2-0.6 0-1.3 0.1-1.8 0.2 0-0.2 0-0.4-0.2-0.4-0.3 0.4-0.9-0.1-1.6 0.1-0.7-0.2 0.4 0.3 1.4 0.5-0.1 0.1-0.2 0.2-0.5 0.3M37.5 86.6c-1.4-1.3-4.3-1.9-4.8-2.9-0.8-0.1-2-1.6-3-1.8 0.5 0 0.1-0.3 0-0.5-0.2 0.2-0.4 0.3-0.6 0.3 0-0.8-0.8-1.3-1.5-1.8 0.5 0.3 0.9 0.5 1.5 0.6 0-0.2 0-0.4 0.2-0.4 0.7 0.7 1.5 1.4 2.4 2.1 1.2 1.1 7.4 3.9 8.5 4.4 0 0-0.2 0.4-0.1 0.4 0.5 0.3 0.9-0.3 1 0.4-1.6 0.2-2.2-0.9-3.6-0.8M83.6 63.4v0.1 0c-0.1 0 0-0.1 0-0.1M43.2 17.1c-0.1 0.1-0.2 0.1-0.2 0.1 0-0.1 0.1-0.1 0.2-0.1M41.3 17.6c0 0.1 0 0.1 0 0 0 0.1 0 0.1 0 0 0 0.1 0 0 0 0M34.7 19.7v0c0.1-0.1 0.1-0.1 0.2-0.1-0.1 0-0.2 0.1-0.2 0.1M50.7 16.4c-0.2 0-0.3 0-0.4-0.1 0.1 0 0.2 0 0.3 0h0.1c0 0 0 0 0 0.1M52.5 16.6c-0.1-0.1-0.4-0.2-0.7-0.2 0-0.1 0.1-0.2 0.1-0.2 0.1 0 0.2 0 0.3 0 0 0 0.1 0 0.1 0.1 0 0 0 0 0-0.1 0.1 0 0.1 0 0.2 0 0.1 0.2 0.2 0.3 0 0.4M55.8 16.9c-0.5 0.1-0.8-0.1-1.3-0.4 0.3 0 0.7 0.1 1 0.2 0.1 0 0.2 0.1 0.3 0.2M91.4 31.1c-0.2 0.1-0.3 0.1-0.5-0.3-1.6-3.4-4.5-8.3-8.7-12.4-4.1-4.2-9.6-7.6-14.6-9.4 0.3 0.1 0.7 0.3 0.5 0.5-4.4-1.7-8.6-2.7-12.6-3.1-10.8-1.7-22.1 0.6-30.8 6.2 0.1 0.2 0.1 0.3-0.2 0.5-3.2 2-7.7 5.5-11.3 10.1-3.6 4.6-6.4 10.4-7.6 15.6 0.1-0.3 0.2-0.8 0.4-0.6-2.6 10.3-1.9 19.1 1.7 26.7 0.2-0.2-0.5-1.2 0.1-1.1 0.4 1.1 0.9 2.3 1.5 3.4 0.7 1.6 1.5 3.7 2.6 4.2-2.8-5.5-4.7-11.8-4.9-17.4 0.4 0.8 0.3 2.5 0.9 3.2 0.2-3.8-0.7-8.9 0.6-12.5-0.3 1.9-0.5 4.5-0.3 7.1 0 1.9 0.9 7.2 1.5 7.7-0.1-0.1-0.1-0.6 0-0.6 0.3 0.6-0.4 0.9 0.1 1 0-0.2 0.1-0.2 0.2-0.2 1 2.2 2.3 5.6 3.3 7.3 1.2 2.2 2.8 4.2 4.6 6 0 0.1 0.1 0.1 0.1 0.2 0.2 0.5 0.9 1.1 1.1 1.5 0.1 0.2-0.1 0.5 0 0.7 1.5 2.8 3.7 5.6 6.4 7.8 1.7 2 4.4 4.1 7.7 5.9 3.2 1.7 6.9 3.1 10.3 3.9 2.4 0.6 5.3 0.7 7.1 1.1 2.4 0.5 6.6-0.2 8.7-0.6 12.6-1.9 25.1-10.5 31.4-22.9 6.5-12.5 6.3-27.8 0.7-39.5" fill="#000000" fill-rule="nonzero" stroke="none" stroke-width="1" stroke-linecap="butt" stroke-linejoin="miter" stroke-miterlimit="10" stroke-dasharray="" stroke-dashoffset="0" font-family="none" font-weight="none" font-size="none" text-anchor="none" style="mix-blend-mode: normal" data-fill-palette-color="tertiary"></path></g><g transform="matrix(1,0,0,1,80,129.98088590310118)"><svg viewBox="0 0 160 100.03822819379766" height="100.03822819379766" width="160"><g><svg viewBox="0 0 230.31195589915967 144" height="100.03822819379766" width="160"><g transform="matrix(1,0,0,1,94.53044329411765,0)"><svg viewBox="0 0 135.78151260504202 144" height="144" width="135.78151260504202"><g id="textblocktransform"><svg viewBox="0 0 135.78151260504202 144" height="144" width="135.78151260504202" id="textblock"><g><svg viewBox="0 0 135.78151260504202 144" height="144" width="135.78151260504202"><g transform="matrix(1,0,0,1,0,0)"><svg width="135.78151260504202" viewBox="71.67999999999999 -35.650000000000006 134.64999999999998 131.20000000000002" height="144" data-palette-color="#cef4eb"><svg></svg><svg></svg><svg></svg><g class="wordmark-text-0" data-fill-palette-color="primary" id="text-0"><path transform="translate(79,0)" d="M19.4 0.4c-3.333 0-6.233-0.727-8.7-2.18-2.467-1.447-4.357-3.53-5.67-6.25-1.32-2.713-1.98-5.92-1.98-9.62v0c0-3.7 0.66-6.9 1.98-9.6 1.313-2.7 3.203-4.777 5.67-6.23 2.467-1.447 5.367-2.17 8.7-2.17v0c2.433 0 4.667 0.377 6.7 1.13 2.033 0.747 3.8 1.853 5.3 3.32v0l-1.55 3.15c-1.7-1.433-3.367-2.467-5-3.1-1.633-0.633-3.433-0.95-5.4-0.95v0c-3.867 0-6.857 1.257-8.97 3.77-2.12 2.52-3.18 6.08-3.18 10.68v0c0 4.633 1.06 8.207 3.18 10.72 2.113 2.52 5.103 3.78 8.97 3.78v0c1.967 0 3.767-0.317 5.4-0.95 1.633-0.633 3.3-1.667 5-3.1v0l1.55 3.15c-1.5 1.467-3.267 2.573-5.3 3.32-2.033 0.753-4.267 1.13-6.7 1.13zM47.2 0.35c-2.3 0-4.323-0.517-6.07-1.55-1.753-1.033-3.103-2.51-4.05-4.43-0.953-1.913-1.43-4.137-1.43-6.67v0c0-2.533 0.477-4.76 1.43-6.68 0.947-1.913 2.297-3.387 4.05-4.42 1.747-1.033 3.77-1.55 6.07-1.55v0c2.3 0 4.333 0.517 6.1 1.55 1.767 1.033 3.127 2.507 4.08 4.42 0.947 1.92 1.42 4.147 1.42 6.68v0c0 2.533-0.473 4.757-1.42 6.67-0.953 1.92-2.313 3.397-4.08 4.43-1.767 1.033-3.8 1.55-6.1 1.55zM47.2-3c2.4 0 4.243-0.793 5.53-2.38 1.28-1.58 1.92-3.887 1.92-6.92v0c0-2.967-0.65-5.26-1.95-6.88-1.3-1.613-3.133-2.42-5.5-2.42v0c-2.367 0-4.2 0.807-5.5 2.42-1.3 1.62-1.95 3.913-1.95 6.88v0c0 3 0.643 5.3 1.93 6.9 1.28 1.6 3.12 2.4 5.52 2.4zM82.4-35.25h4.05v35.25h-4.05v-4.45c-0.733 1.533-1.81 2.717-3.23 3.55-1.413 0.833-3.07 1.25-4.97 1.25v0c-2.133 0-4.017-0.533-5.65-1.6-1.633-1.067-2.9-2.56-3.8-4.48-0.9-1.913-1.35-4.137-1.35-6.67v0c0-2.5 0.45-4.7 1.35-6.6 0.9-1.9 2.167-3.367 3.8-4.4 1.633-1.033 3.517-1.55 5.65-1.55v0c1.9 0 3.557 0.417 4.97 1.25 1.42 0.833 2.497 2.017 3.23 3.55v0zM75-3c2.367 0 4.19-0.81 5.47-2.43 1.287-1.613 1.93-3.903 1.93-6.87v0c0-2.967-0.643-5.25-1.93-6.85-1.28-1.6-3.103-2.4-5.47-2.4v0c-2.367 0-4.21 0.8-5.53 2.4-1.313 1.6-1.97 3.85-1.97 6.75v0c0 2.967 0.657 5.273 1.97 6.92 1.32 1.653 3.163 2.48 5.53 2.48zM114.35-13.05v1.5h-17.8c0.133 2.833 0.9 4.973 2.3 6.42 1.4 1.453 3.383 2.18 5.95 2.18v0c2.833 0 5.433-0.967 7.8-2.9v0l1.35 2.95c-1.067 1-2.433 1.79-4.1 2.37-1.667 0.587-3.367 0.88-5.1 0.88v0c-3.8 0-6.79-1.117-8.97-3.35-2.187-2.233-3.28-5.317-3.28-9.25v0c0-2.5 0.483-4.71 1.45-6.63 0.967-1.913 2.327-3.403 4.08-4.47 1.747-1.067 3.737-1.6 5.97-1.6v0c3.233 0 5.767 1.057 7.6 3.17 1.833 2.12 2.75 5.03 2.75 8.73zM104.05-21.8c-2.133 0-3.843 0.667-5.13 2-1.28 1.333-2.037 3.217-2.27 5.65v0h14.15c-0.067-2.467-0.683-4.36-1.85-5.68-1.167-1.313-2.8-1.97-4.9-1.97z" fill="#000000" fill-rule="nonzero" stroke="none" stroke-width="1" stroke-linecap="butt" stroke-linejoin="miter" stroke-miterlimit="10" stroke-dasharray="" stroke-dashoffset="0" font-family="none" font-weight="none" font-size="none" text-anchor="none" style="mix-blend-mode: normal" data-fill-palette-color="primary" opacity="1"></path><path transform="translate(67.33,47.6)" d="M21.1-9.7l13.2-25.55h3.35v35.25h-3.75l0.05-27.3-11.45 21.7h-2.9l-11.5-21.5 0.05 27.1h-3.8v-35.25h3.4zM66.2-13.05v1.5h-17.8c0.133 2.833 0.9 4.973 2.3 6.42 1.4 1.453 3.383 2.18 5.95 2.18v0c2.833 0 5.433-0.967 7.8-2.9v0l1.35 2.95c-1.067 1-2.433 1.79-4.1 2.37-1.667 0.587-3.367 0.88-5.1 0.88v0c-3.8 0-6.79-1.117-8.97-3.35-2.187-2.233-3.28-5.317-3.28-9.25v0c0-2.5 0.483-4.71 1.45-6.63 0.967-1.913 2.327-3.403 4.08-4.47 1.747-1.067 3.737-1.6 5.97-1.6v0c3.233 0 5.767 1.057 7.6 3.17 1.833 2.12 2.75 5.03 2.75 8.73zM55.9-21.8c-2.133 0-3.84 0.667-5.12 2-1.287 1.333-2.047 3.217-2.28 5.65v0h14.15c-0.067-2.467-0.683-4.36-1.85-5.68-1.167-1.313-2.8-1.97-4.9-1.97zM85.6-24.95l0.35 3.5-2.65 0.25c-2.5 0.233-4.307 1.017-5.42 2.35-1.12 1.333-1.68 2.983-1.68 4.95v0 13.9h-4.05v-24.35h3.95v4.25c1.367-2.833 4.05-4.417 8.05-4.75v0zM107.05-24.35h4.05v22.7c0 3.633-0.933 6.377-2.8 8.23-1.867 1.847-4.633 2.77-8.3 2.77v0c-4.267 0-7.85-1.1-10.75-3.3v0l1.35-3c1.633 1.067 3.167 1.833 4.6 2.3 1.433 0.467 3.033 0.7 4.8 0.7v0c2.333 0 4.1-0.627 5.3-1.88 1.2-1.247 1.8-3.07 1.8-5.47v0-4.3c-0.7 1.567-1.773 2.767-3.22 3.6-1.453 0.833-3.163 1.25-5.13 1.25v0c-2.133 0-4.023-0.5-5.67-1.5-1.653-1-2.937-2.417-3.85-4.25-0.92-1.833-1.38-3.95-1.38-6.35v0c0-2.4 0.46-4.517 1.38-6.35 0.913-1.833 2.197-3.25 3.85-4.25 1.647-1 3.537-1.5 5.67-1.5v0c1.933 0 3.617 0.417 5.05 1.25 1.433 0.833 2.517 2.017 3.25 3.55v0zM99.55-4.1c2.333 0 4.167-0.777 5.5-2.33 1.333-1.547 2-3.687 2-6.42v0c0-2.7-0.657-4.827-1.97-6.38-1.32-1.547-3.163-2.32-5.53-2.32v0c-2.367 0-4.223 0.773-5.57 2.32-1.353 1.553-2.03 3.68-2.03 6.38v0c0 2.733 0.677 4.873 2.03 6.42 1.347 1.553 3.203 2.33 5.57 2.33zM139-13.05v1.5h-17.8c0.133 2.833 0.9 4.973 2.3 6.42 1.4 1.453 3.383 2.18 5.95 2.18v0c2.833 0 5.433-0.967 7.8-2.9v0l1.35 2.95c-1.067 1-2.433 1.79-4.1 2.37-1.667 0.587-3.367 0.88-5.1 0.88v0c-3.8 0-6.79-1.117-8.97-3.35-2.187-2.233-3.28-5.317-3.28-9.25v0c0-2.5 0.483-4.71 1.45-6.63 0.967-1.913 2.327-3.403 4.08-4.47 1.747-1.067 3.737-1.6 5.97-1.6v0c3.233 0 5.767 1.057 7.6 3.17 1.833 2.12 2.75 5.03 2.75 8.73zM128.7-21.8c-2.133 0-3.84 0.667-5.12 2-1.287 1.333-2.047 3.217-2.28 5.65v0h14.15c-0.067-2.467-0.683-4.36-1.85-5.68-1.167-1.313-2.8-1.97-4.9-1.97z" fill="#000000" fill-rule="nonzero" stroke="none" stroke-width="1" stroke-linecap="butt" stroke-linejoin="miter" stroke-miterlimit="10" stroke-dasharray="" stroke-dashoffset="0" font-family="none" font-weight="none" font-size="none" text-anchor="none" style="mix-blend-mode: normal" data-fill-palette-color="primary" opacity="1"></path><path transform="translate(70.78,95.2)" d="M26.65 0h-22.3v-35.25h22.3v3.4h-18.25v12.25h17.25v3.4h-17.25v12.8h18.25zM50.4-35.25h4.05v35.25h-4.05v-4.45c-0.733 1.533-1.81 2.717-3.23 3.55-1.413 0.833-3.07 1.25-4.97 1.25v0c-2.133 0-4.017-0.533-5.65-1.6-1.633-1.067-2.9-2.56-3.8-4.48-0.9-1.913-1.35-4.137-1.35-6.67v0c0-2.5 0.45-4.7 1.35-6.6 0.9-1.9 2.167-3.367 3.8-4.4 1.633-1.033 3.517-1.55 5.65-1.55v0c1.9 0 3.557 0.417 4.97 1.25 1.42 0.833 2.497 2.017 3.23 3.55v0zM43-3c2.367 0 4.193-0.81 5.48-2.43 1.28-1.613 1.92-3.903 1.92-6.87v0c0-2.967-0.64-5.25-1.92-6.85-1.287-1.6-3.113-2.4-5.48-2.4v0c-2.367 0-4.207 0.8-5.52 2.4-1.32 1.6-1.98 3.85-1.98 6.75v0c0 2.967 0.66 5.273 1.98 6.92 1.313 1.653 3.153 2.48 5.52 2.48zM66 0h-4.05v-24.35h4.05zM61.55-30.35v-4.55h4.9v4.55zM84.25-2.9c0.733 0 1.467-0.05 2.2-0.15v0l-0.2 3.2c-0.767 0.133-1.6 0.2-2.5 0.2v0c-2.933 0-5.14-0.767-6.62-2.3-1.487-1.533-2.23-3.667-2.23-6.4v0-12.8h-4.75v-3.2h4.75v-7.4h4.05v7.4h6.9v3.2h-6.9v12.5c0 3.833 1.767 5.75 5.3 5.75zM100.65 0.35c-2.3 0-4.323-0.517-6.07-1.55-1.753-1.033-3.103-2.51-4.05-4.43-0.953-1.913-1.43-4.137-1.43-6.67v0c0-2.533 0.477-4.76 1.43-6.68 0.947-1.913 2.297-3.387 4.05-4.42 1.747-1.033 3.77-1.55 6.07-1.55v0c2.3 0 4.333 0.517 6.1 1.55 1.767 1.033 3.127 2.507 4.08 4.42 0.947 1.92 1.42 4.147 1.42 6.68v0c0 2.533-0.473 4.757-1.42 6.67-0.953 1.92-2.313 3.397-4.08 4.43-1.767 1.033-3.8 1.55-6.1 1.55zM100.65-3c2.4 0 4.243-0.793 5.53-2.38 1.28-1.58 1.92-3.887 1.92-6.92v0c0-2.967-0.65-5.26-1.95-6.88-1.3-1.613-3.133-2.42-5.5-2.42v0c-2.367 0-4.2 0.807-5.5 2.42-1.3 1.62-1.95 3.913-1.95 6.88v0c0 3 0.643 5.3 1.93 6.9 1.28 1.6 3.12 2.4 5.52 2.4zM131.75-24.95l0.35 3.5-2.65 0.25c-2.5 0.233-4.307 1.017-5.42 2.35-1.12 1.333-1.68 2.983-1.68 4.95v0 13.9h-4.05v-24.35h3.95v4.25c1.367-2.833 4.05-4.417 8.05-4.75v0z" fill="#000000" fill-rule="nonzero" stroke="none" stroke-width="1" stroke-linecap="butt" stroke-linejoin="miter" stroke-miterlimit="10" stroke-dasharray="" stroke-dashoffset="0" font-family="none" font-weight="none" font-size="none" text-anchor="none" style="mix-blend-mode: normal" data-fill-palette-color="primary" opacity="1"></path></g></svg></g></svg></g></svg></g></svg></g><g transform="matrix(1,0,0,1,0,33.53953691722689)"><svg viewBox="0 0 83.91297478991596 76.92092616554622" height="76.92092616554622" width="83.91297478991596"><g><svg xmlns="http://www.w3.org/2000/svg" xmlns:xlink="http://www.w3.org/1999/xlink" version="1.0" x="0" y="0" viewBox="10 13.333 80 73.334" enable-background="new 0 0 100 100" xml:space="preserve" height="76.92092616554622" width="83.91297478991596" class="icon-icon-0" data-fill-palette-color="accent" id="icon-0"><path d="M10 33.333V80c0 3.665 3.001 6.667 6.667 6.667h66.666C86.999 86.667 90 83.665 90 80V33.333H10zM20 43.333h40V50H20V43.333zM73.333 76.667H20V70h53.333V76.667zM80 63.333H26.667v-6.666H80V63.333z" fill="#000000" data-fill-palette-color="accent"></path><path d="M90 26.667V20c0-3.665-3.001-6.667-6.667-6.667H16.667C13.001 13.333 10 16.335 10 20v6.667H90z" fill="#000000" data-fill-palette-color="accent"></path></svg></g></svg></g></svg></g></svg></g></svg></g><defs></defs></svg><rect width="320" height="360" fill="none" stroke="none" visibility="hidden"></rect></g></svg></g></svg>